#N canvas 507 70 699 635 12;
#X obj 144 300 vu 15 120 empty empty -1 -8 0 10 #404040 #000000 1 0;
#X obj 143 244 env~;
#X obj 143 266 - 100;
#X obj 78 158 adc~;
#X obj 78 257 dac~;
#X obj 77 198 *~;
#X obj 135 94 vsl 19 50 0 1 0 0 empty empty empty 0 -9 0 12 #fcfcfc #000000 #000000 0 1;
#X obj 117 198 *~;
#X obj 135 158 line 50;
#X obj 194 300 vu 15 120 empty empty -1 -8 0 10 #404040 #000000 1 0;
#X obj 193 244 env~;
#X obj 193 266 - 100;
#X connect 1 0 2 0;
#X connect 2 0 0 0;
#X connect 3 0 5 0;
#X connect 3 1 7 0;
#X connect 5 0 4 0;
#X connect 5 0 1 0;
#X connect 6 0 8 0;
#X connect 7 0 4 1;
#X connect 7 0 10 0;
#X connect 8 0 7 1;
#X connect 8 0 5 1;
#X connect 10 0 11 0;
#X connect 11 0 9 0;
